<svg width="25" height="8" viewBox="0 0 25 8" fill="none" xmlns="http://www.w3.org/2000/svg">
<path d="M3.86925 7.36606C4.10842 5.71306 5.27437 4.15021 6.82897 4.15021V3.7595C5.27437 3.7595 4.10842 2.22672 3.86925 0.543656H3.4806C3.27133 2.22672 2.07548 3.7595 0.550781 3.7595V4.15021C2.07548 4.15021 3.27133 5.71306 3.4806 7.36606H3.86925Z" fill="#996830"/>
<path d="M21.507 7.30595C21.7462 5.62289 22.9122 4.0901 24.4668 4.0901V3.66934C22.9122 3.66934 21.7462 2.13655 21.507 0.453491H21.1184C20.9091 2.13655 19.7133 3.66934 18.1886 3.66934V4.0901C19.7133 4.0901 20.9091 5.62289 21.1184 7.30595H21.507Z" fill="#996830"/>
</svg>
